<?xml version="1.0" encoding="utf-8"?>
<!-- Generator: Adobe Illustrator 25.2.1, SVG Export Plug-In . SVG Version: 6.00 Build 0)  -->
<!DOCTYPE svg PUBLIC "-//W3C//DTD SVG 1.0//EN" "http://www.w3.org/TR/2001/REC-SVG-20010904/DTD/svg10.dtd" [
	<!ENTITY st0 "fill:#231F20;">
]>
<svg version="1.0" id="Layer_1" xmlns="http://www.w3.org/2000/svg" xmlns:xlink="http://www.w3.org/1999/xlink" x="0px" y="0px"
	 viewBox="0 0 28.8 28.8" style="enable-background:new 0 0 28.8 28.8;" xml:space="preserve">
<g>
	<path style="&st0;" d="M25.6,0H3.2C1.4,0,0,1.4,0,3.2v22.4c0,1.8,1.4,3.2,3.2,3.2h22.4c1.8,0,3.2-1.4,3.2-3.2V3.2
		C28.8,1.4,27.3,0,25.6,0z M25.6,25.6H3.2V3.2h22.4V25.6z"/>
	<polygon style="&st0;" points="12.8,22.4 16,22.4 16,16 16,16 16,16 22.4,16 22.4,16 22.4,16 22.4,12.8 16,12.8 16,6.4 12.8,6.4 
		12.8,12.8 6.4,12.8 6.4,16 12.8,16 	"/>
</g>
</svg>
